<?xml version="1.0" standalone="no"?>
<!DOCTYPE svg PUBLIC "-//W3C//DTD SVG 20010904//EN"
 "http://www.w3.org/TR/2001/REC-SVG-20010904/DTD/svg10.dtd">
<svg version="1.0" xmlns="http://www.w3.org/2000/svg"
 width="512.000000pt" height="512.000000pt" viewBox="0 0 512.000000 512.000000"
 preserveAspectRatio="xMidYMid meet">
<metadata>
Created by potrace 1.11, written by Peter Selinger 2001-2013
</metadata>
<g transform="translate(0.000000,512.000000) scale(0.100000,-0.100000)"
fill="#000000" stroke="none">
<path d="M3340 4813 c-369 -28 -665 -110 -912 -253 -38 -22 -72 -40 -75 -40
-11 0 -196 -133 -257 -186 -36 -29 -67 -54 -69 -54 -3 0 -1 15 3 33 5 17 12
48 15 67 3 19 10 53 15 75 5 22 12 56 15 75 3 19 15 75 26 124 11 49 18 91 15
93 -5 6 -1216 6 -1221 1 -2 -2 -5 -19 -8 -38 -11 -67 -25 -145 -31 -160 -3 -8
-7 -31 -10 -50 -3 -19 -15 -80 -26 -135 -11 -55 -23 -111 -25 -125 -6 -34 -14
-70 -20 -100 -7 -33 -14 -68 -21 -105 -3 -16 -26 -131 -51 -255 -25 -124 -47
-236 -49 -250 -2 -14 -9 -45 -14 -70 -5 -25 -12 -56 -14 -70 -2 -14 -14 -72
-26 -130 -12 -58 -24 -114 -25 -125 -2 -11 -17 -87 -33 -170 -29 -140 -155
-780 -166 -835 -2 -14 -9 -47 -16 -75 -6 -27 -13 -62 -15 -77 -2 -15 -6 -35
-9 -45 -3 -10 -7 -34 -10 -53 -3 -19 -20 -102 -36 -185 -17 -82 -33 -161 -36
-175 -3 -14 -23 -115 -44 -225 -22 -110 -42 -211 -45 -225 -3 -13 -30 -150
-61 -305 -31 -154 -58 -289 -60 -300 -4 -23 -11 -57 -20 -100 -3 -16 -8 -38
-10 -47 -5 -16 37 -17 640 -17 600 0 645 1 650 17 5 17 41 193 50 247 3 17 15
76 26 130 11 55 36 181 55 280 20 99 44 223 55 275 10 52 22 111 25 130 3 19
8 42 10 50 3 8 18 87 35 175 18 88 33 169 36 180 2 11 40 202 84 425 84 424
112 540 160 670 120 326 341 580 615 706 117 54 187 74 353 100 131 21 378 13
486 -15 318 -84 477 -307 479 -671 1 -84 -6 -181 -14 -220 -4 -19 -10 -51 -12
-70 -3 -19 -11 -60 -17 -90 -12 -59 -18 -87 -24 -122 -2 -13 -12 -59 -21 -103
-10 -44 -19 -89 -20 -100 -2 -11 -29 -144 -60 -295 -30 -151 -67 -333 -81
-405 -14 -71 -28 -139 -30 -150 -3 -11 -11 -54 -19 -95 -8 -41 -17 -84 -19
-95 -6 -26 -54 -263 -60 -295 -3 -14 -7 -36 -10 -50 -10 -43 -26 -125 -31
-151 -6 -31 -10 -53 -35 -174 -29 -141 -30 -147 -36 -180 -2 -16 -9 -45 -14
-63 -6 -24 -5 -34 3 -38 7 -2 297 -3 646 -2 l634 3 14 60 c8 33 15 71 17 85 2
14 29 151 61 305 31 154 59 291 61 305 2 14 7 36 10 50 3 14 8 36 10 50 2 14
7 36 10 50 3 14 8 36 11 50 7 41 152 757 173 855 10 50 21 106 24 126 3 20 8
42 10 50 3 8 7 25 10 39 4 25 64 328 72 365 2 11 6 31 9 45 3 14 7 34 9 45 2
11 7 40 12 65 4 25 8 47 9 50 1 3 5 32 9 65 5 33 10 74 13 90 8 62 10 383 2
450 -26 220 -57 343 -127 500 -35 79 -111 209 -154 263 -103 127 -301 288
-448 362 -108 54 -282 116 -383 136 -81 16 -191 34 -242 40 -62 7 -343 12
-405 7z"/>
</g>
</svg>
